<?xml version="1.0" encoding="UTF-8" standalone="no"?>
<!DOCTYPE svg PUBLIC "-//W3C//DTD SVG 1.1//EN"
 "http://www.w3.org/Graphics/SVG/1.1/DTD/svg11.dtd">
<!-- Generated by graphviz version 2.47.0 (20210316.0004)
 -->
<!-- Title: dependencies Pages: 1 -->
<svg width="504pt" height="284pt"
 viewBox="0.00 0.00 504.00 284.00" xmlns="http://www.w3.org/2000/svg" xmlns:xlink="http://www.w3.org/1999/xlink">
<g id="graph0" class="graph" transform="scale(1 1) rotate(0) translate(4 280)">
<title>dependencies</title>
<polygon fill="white" stroke="transparent" points="-4,4 -4,-280 500,-280 500,4 -4,4"/>
<text text-anchor="start" x="227.01" y="-42.4" font-family="Times-12" font-weight="bold" font-size="14.00">Legend</text>
<polygon fill="#ffffb3" stroke="transparent" points="14,-10 14,-30 34,-30 34,-10 14,-10"/>
<text text-anchor="start" x="37.63" y="-15.4" font-family="Times-12" font-size="14.00"> &#160;Declarations</text>
<polygon fill="#8dd3c7" stroke="transparent" points="127,-10 127,-30 147,-30 147,-10 127,-10"/>
<text text-anchor="start" x="150.73" y="-15.4" font-family="Times-12" font-size="14.00"> &#160;Module</text>
<polygon fill="#80b1d3" stroke="transparent" points="213,-10 213,-30 233,-30 233,-10 213,-10"/>
<text text-anchor="start" x="236.78" y="-15.4" font-family="Times-12" font-size="14.00"> &#160;Bootstrap</text>
<polygon fill="#fdb462" stroke="transparent" points="310,-10 310,-30 330,-30 330,-10 310,-10"/>
<text text-anchor="start" x="333.67" y="-15.4" font-family="Times-12" font-size="14.00"> &#160;Providers</text>
<polygon fill="#fb8072" stroke="transparent" points="406,-10 406,-30 426,-30 426,-10 406,-10"/>
<text text-anchor="start" x="429.73" y="-15.4" font-family="Times-12" font-size="14.00"> &#160;Exports</text>
<g id="clust1" class="cluster">
<title>cluster_NotificationsModule</title>
<polygon fill="none" stroke="black" stroke-dasharray="1,5" points="87,-70 87,-268 409,-268 409,-70 87,-70"/>
</g>
<g id="clust6" class="cluster">
<title>cluster_NotificationsModule_providers</title>
<polygon fill="none" stroke="black" points="205,-78 205,-130 401,-130 401,-78 205,-78"/>
</g>
<g id="clust4" class="cluster">
<title>cluster_NotificationsModule_exports</title>
<polygon fill="none" stroke="black" points="161,-208 161,-260 311,-260 311,-208 161,-208"/>
</g>
<g id="clust3" class="cluster">
<title>cluster_NotificationsModule_imports</title>
<polygon fill="none" stroke="black" points="95,-78 95,-130 197,-130 197,-78 95,-78"/>
</g>
<!-- ChatModule -->
<g id="node1" class="node">
<title>ChatModule</title>
<polygon fill="#8dd3c7" stroke="black" points="188.99,-122 185.99,-126 164.99,-126 161.99,-122 103.01,-122 103.01,-86 188.99,-86 188.99,-122"/>
<text text-anchor="middle" x="146" y="-99.8" font-family="Times,serif" font-size="14.00">ChatModule</text>
</g>
<!-- NotificationsModule -->
<g id="node2" class="node">
<title>NotificationsModule</title>
<polygon fill="#8dd3c7" stroke="black" points="302.14,-187 299.14,-191 278.14,-191 275.14,-187 169.86,-187 169.86,-151 302.14,-151 302.14,-187"/>
<text text-anchor="middle" x="236" y="-164.8" font-family="Times,serif" font-size="14.00">NotificationsModule</text>
</g>
<!-- ChatModule&#45;&gt;NotificationsModule -->
<g id="edge1" class="edge">
<title>ChatModule&#45;&gt;NotificationsModule</title>
<path fill="none" stroke="black" d="M179.34,-122.11C179.34,-122.11 179.34,-140.99 179.34,-140.99"/>
<polygon fill="black" stroke="black" points="175.84,-140.99 179.34,-150.99 182.84,-140.99 175.84,-140.99"/>
</g>
<!-- NotificationsService  -->
<g id="node3" class="node">
<title>NotificationsService </title>
<polygon fill="#fb8072" stroke="black" points="303.07,-252 168.93,-252 168.93,-216 303.07,-216 303.07,-252"/>
<text text-anchor="middle" x="236" y="-229.8" font-family="Times,serif" font-size="14.00">NotificationsService </text>
</g>
<!-- NotificationsModule&#45;&gt;NotificationsService  -->
<g id="edge2" class="edge">
<title>NotificationsModule&#45;&gt;NotificationsService </title>
<path fill="none" stroke="black" stroke-dasharray="5,2" d="M236,-187.11C236,-187.11 236,-205.99 236,-205.99"/>
<polygon fill="black" stroke="black" points="232.5,-205.99 236,-215.99 239.5,-205.99 232.5,-205.99"/>
</g>
<!-- NotificationsService -->
<g id="node4" class="node">
<title>NotificationsService</title>
<ellipse fill="#fdb462" stroke="black" cx="303" cy="-104" rx="90.32" ry="18"/>
<text text-anchor="middle" x="303" y="-99.8" font-family="Times,serif" font-size="14.00">NotificationsService</text>
</g>
<!-- NotificationsService&#45;&gt;NotificationsModule -->
<g id="edge3" class="edge">
<title>NotificationsService&#45;&gt;NotificationsModule</title>
<path fill="none" stroke="black" d="M257.46,-119.73C257.46,-119.73 257.46,-140.65 257.46,-140.65"/>
<polygon fill="black" stroke="black" points="253.96,-140.65 257.46,-150.65 260.96,-140.65 253.96,-140.65"/>
</g>
</g>
</svg>
