<?xml version="1.0" encoding="UTF-8" standalone="no"?>
<!DOCTYPE svg PUBLIC "-//W3C//DTD SVG 1.1//EN"
 "http://www.w3.org/Graphics/SVG/1.1/DTD/svg11.dtd">
<!-- Generated by graphviz version 2.47.0 (20210316.0004)
 -->
<!-- Title: dependencies Pages: 1 -->
<svg width="1336pt" height="211pt"
 viewBox="0.00 0.00 1336.00 211.00" xmlns="http://www.w3.org/2000/svg" xmlns:xlink="http://www.w3.org/1999/xlink">
<g id="graph0" class="graph" transform="scale(1 1) rotate(0) translate(4 207)">
<title>dependencies</title>
<polygon fill="white" stroke="transparent" points="-4,4 -4,-207 1332,-207 1332,4 -4,4"/>
<text text-anchor="start" x="643.01" y="-42.4" font-family="Times-12" font-weight="bold" font-size="14.00">Legend</text>
<polygon fill="#ffffb3" stroke="transparent" points="430,-10 430,-30 450,-30 450,-10 430,-10"/>
<text text-anchor="start" x="453.63" y="-15.4" font-family="Times-12" font-size="14.00"> &#160;Declarations</text>
<polygon fill="#8dd3c7" stroke="transparent" points="543,-10 543,-30 563,-30 563,-10 543,-10"/>
<text text-anchor="start" x="566.73" y="-15.4" font-family="Times-12" font-size="14.00"> &#160;Module</text>
<polygon fill="#80b1d3" stroke="transparent" points="629,-10 629,-30 649,-30 649,-10 629,-10"/>
<text text-anchor="start" x="652.78" y="-15.4" font-family="Times-12" font-size="14.00"> &#160;Bootstrap</text>
<polygon fill="#fdb462" stroke="transparent" points="726,-10 726,-30 746,-30 746,-10 726,-10"/>
<text text-anchor="start" x="749.67" y="-15.4" font-family="Times-12" font-size="14.00"> &#160;Providers</text>
<polygon fill="#fb8072" stroke="transparent" points="822,-10 822,-30 842,-30 842,-10 822,-10"/>
<text text-anchor="start" x="845.73" y="-15.4" font-family="Times-12" font-size="14.00"> &#160;Exports</text>
<g id="clust1" class="cluster">
<title>cluster_AppModule</title>
<polygon fill="none" stroke="black" stroke-dasharray="1,5" points="8,-70 8,-195 1320,-195 1320,-70 8,-70"/>
</g>
<g id="clust3" class="cluster">
<title>cluster_AppModule_imports</title>
<polygon fill="none" stroke="black" points="154,-78 154,-130 1312,-130 1312,-78 154,-78"/>
</g>
<g id="clust6" class="cluster">
<title>cluster_AppModule_providers</title>
<polygon fill="none" stroke="black" points="16,-78 16,-130 146,-130 146,-78 16,-78"/>
</g>
<!-- AuthModule -->
<g id="node1" class="node">
<title>AuthModule</title>
<polygon fill="#8dd3c7" stroke="black" points="1303.55,-122 1300.55,-126 1279.55,-126 1276.55,-122 1216.45,-122 1216.45,-86 1303.55,-86 1303.55,-122"/>
<text text-anchor="middle" x="1260" y="-99.8" font-family="Times,serif" font-size="14.00">AuthModule</text>
</g>
<!-- AppModule -->
<g id="node11" class="node">
<title>AppModule</title>
<polygon fill="#8dd3c7" stroke="black" points="699.66,-187 696.66,-191 675.66,-191 672.66,-187 616.34,-187 616.34,-151 699.66,-151 699.66,-187"/>
<text text-anchor="middle" x="658" y="-164.8" font-family="Times,serif" font-size="14.00">AppModule</text>
</g>
<!-- AuthModule&#45;&gt;AppModule -->
<g id="edge1" class="edge">
<title>AuthModule&#45;&gt;AppModule</title>
<path fill="none" stroke="black" d="M1260,-122.09C1260,-145.13 1260,-182 1260,-182 1260,-182 709.85,-182 709.85,-182"/>
<polygon fill="black" stroke="black" points="709.85,-178.5 699.85,-182 709.85,-185.5 709.85,-178.5"/>
</g>
<!-- ChatModule -->
<g id="node2" class="node">
<title>ChatModule</title>
<polygon fill="#8dd3c7" stroke="black" points="1197.99,-122 1194.99,-126 1173.99,-126 1170.99,-122 1112.01,-122 1112.01,-86 1197.99,-86 1197.99,-122"/>
<text text-anchor="middle" x="1155" y="-99.8" font-family="Times,serif" font-size="14.00">ChatModule</text>
</g>
<!-- ChatModule&#45;&gt;AppModule -->
<g id="edge2" class="edge">
<title>ChatModule&#45;&gt;AppModule</title>
<path fill="none" stroke="black" d="M1155,-122.28C1155,-143.32 1155,-175 1155,-175 1155,-175 709.95,-175 709.95,-175"/>
<polygon fill="black" stroke="black" points="709.95,-171.5 699.95,-175 709.95,-178.5 709.95,-171.5"/>
</g>
<!-- MailModule -->
<g id="node3" class="node">
<title>MailModule</title>
<polygon fill="#8dd3c7" stroke="black" points="1093.99,-122 1090.99,-126 1069.99,-126 1066.99,-122 1008.01,-122 1008.01,-86 1093.99,-86 1093.99,-122"/>
<text text-anchor="middle" x="1051" y="-99.8" font-family="Times,serif" font-size="14.00">MailModule</text>
</g>
<!-- MailModule&#45;&gt;AppModule -->
<g id="edge3" class="edge">
<title>MailModule&#45;&gt;AppModule</title>
<path fill="none" stroke="black" d="M1051,-122.11C1051,-141.34 1051,-169 1051,-169 1051,-169 709.69,-169 709.69,-169"/>
<polygon fill="black" stroke="black" points="709.69,-165.5 699.69,-169 709.69,-172.5 709.69,-165.5"/>
</g>
<!-- MessagesModule -->
<g id="node4" class="node">
<title>MessagesModule</title>
<polygon fill="#8dd3c7" stroke="black" points="989.97,-122 986.97,-126 965.97,-126 962.97,-122 876.03,-122 876.03,-86 989.97,-86 989.97,-122"/>
<text text-anchor="middle" x="933" y="-99.8" font-family="Times,serif" font-size="14.00">MessagesModule</text>
</g>
<!-- MessagesModule&#45;&gt;AppModule -->
<g id="edge4" class="edge">
<title>MessagesModule&#45;&gt;AppModule</title>
<path fill="none" stroke="black" d="M933,-122.02C933,-139.37 933,-163 933,-163 933,-163 709.77,-163 709.77,-163"/>
<polygon fill="black" stroke="black" points="709.77,-159.5 699.77,-163 709.77,-166.5 709.77,-159.5"/>
</g>
<!-- NotificationsModule -->
<g id="node5" class="node">
<title>NotificationsModule</title>
<polygon fill="#8dd3c7" stroke="black" points="858.14,-122 855.14,-126 834.14,-126 831.14,-122 725.86,-122 725.86,-86 858.14,-86 858.14,-122"/>
<text text-anchor="middle" x="792" y="-99.8" font-family="Times,serif" font-size="14.00">NotificationsModule</text>
</g>
<!-- NotificationsModule&#45;&gt;AppModule -->
<g id="edge5" class="edge">
<title>NotificationsModule&#45;&gt;AppModule</title>
<path fill="none" stroke="black" d="M792,-122.24C792,-137.57 792,-157 792,-157 792,-157 709.66,-157 709.66,-157"/>
<polygon fill="black" stroke="black" points="709.66,-153.5 699.66,-157 709.66,-160.5 709.66,-153.5"/>
</g>
<!-- RoomsModule -->
<g id="node6" class="node">
<title>RoomsModule</title>
<polygon fill="#8dd3c7" stroke="black" points="707.72,-122 704.72,-126 683.72,-126 680.72,-122 608.28,-122 608.28,-86 707.72,-86 707.72,-122"/>
<text text-anchor="middle" x="658" y="-99.8" font-family="Times,serif" font-size="14.00">RoomsModule</text>
</g>
<!-- RoomsModule&#45;&gt;AppModule -->
<g id="edge6" class="edge">
<title>RoomsModule&#45;&gt;AppModule</title>
<path fill="none" stroke="black" d="M658,-122.11C658,-122.11 658,-140.99 658,-140.99"/>
<polygon fill="black" stroke="black" points="654.5,-140.99 658,-150.99 661.5,-140.99 654.5,-140.99"/>
</g>
<!-- SeederModule -->
<g id="node7" class="node">
<title>SeederModule</title>
<polygon fill="#8dd3c7" stroke="black" points="590.64,-122 587.64,-126 566.64,-126 563.64,-122 493.36,-122 493.36,-86 590.64,-86 590.64,-122"/>
<text text-anchor="middle" x="542" y="-99.8" font-family="Times,serif" font-size="14.00">SeederModule</text>
</g>
<!-- SeederModule&#45;&gt;AppModule -->
<g id="edge7" class="edge">
<title>SeederModule&#45;&gt;AppModule</title>
<path fill="none" stroke="black" d="M542,-122.24C542,-137.57 542,-157 542,-157 542,-157 606.12,-157 606.12,-157"/>
<polygon fill="black" stroke="black" points="606.12,-160.5 616.12,-157 606.12,-153.5 606.12,-160.5"/>
</g>
<!-- StripeModule -->
<g id="node8" class="node">
<title>StripeModule</title>
<polygon fill="#8dd3c7" stroke="black" points="475.49,-122 472.49,-126 451.49,-126 448.49,-122 382.51,-122 382.51,-86 475.49,-86 475.49,-122"/>
<text text-anchor="middle" x="429" y="-99.8" font-family="Times,serif" font-size="14.00">StripeModule</text>
</g>
<!-- StripeModule&#45;&gt;AppModule -->
<g id="edge8" class="edge">
<title>StripeModule&#45;&gt;AppModule</title>
<path fill="none" stroke="black" d="M429,-122.02C429,-139.37 429,-163 429,-163 429,-163 606.26,-163 606.26,-163"/>
<polygon fill="black" stroke="black" points="606.26,-166.5 616.26,-163 606.26,-159.5 606.26,-166.5"/>
</g>
<!-- TasksModule -->
<g id="node9" class="node">
<title>TasksModule</title>
<polygon fill="#8dd3c7" stroke="black" points="364.21,-122 361.21,-126 340.21,-126 337.21,-122 271.79,-122 271.79,-86 364.21,-86 364.21,-122"/>
<text text-anchor="middle" x="318" y="-99.8" font-family="Times,serif" font-size="14.00">TasksModule</text>
</g>
<!-- TasksModule&#45;&gt;AppModule -->
<g id="edge9" class="edge">
<title>TasksModule&#45;&gt;AppModule</title>
<path fill="none" stroke="black" d="M318,-122.11C318,-141.34 318,-169 318,-169 318,-169 606.31,-169 606.31,-169"/>
<polygon fill="black" stroke="black" points="606.31,-172.5 616.31,-169 606.31,-165.5 606.31,-172.5"/>
</g>
<!-- UsersModule -->
<g id="node10" class="node">
<title>UsersModule</title>
<polygon fill="#8dd3c7" stroke="black" points="253.92,-122 250.92,-126 229.92,-126 226.92,-122 162.08,-122 162.08,-86 253.92,-86 253.92,-122"/>
<text text-anchor="middle" x="208" y="-99.8" font-family="Times,serif" font-size="14.00">UsersModule</text>
</g>
<!-- UsersModule&#45;&gt;AppModule -->
<g id="edge10" class="edge">
<title>UsersModule&#45;&gt;AppModule</title>
<path fill="none" stroke="black" d="M208,-122.28C208,-143.32 208,-175 208,-175 208,-175 606.07,-175 606.07,-175"/>
<polygon fill="black" stroke="black" points="606.07,-178.5 616.07,-175 606.07,-171.5 606.07,-178.5"/>
</g>
<!-- AppService -->
<g id="node12" class="node">
<title>AppService</title>
<ellipse fill="#fdb462" stroke="black" cx="81" cy="-104" rx="56.74" ry="18"/>
<text text-anchor="middle" x="81" y="-99.8" font-family="Times,serif" font-size="14.00">AppService</text>
</g>
<!-- AppService&#45;&gt;AppModule -->
<g id="edge11" class="edge">
<title>AppService&#45;&gt;AppModule</title>
<path fill="none" stroke="black" d="M81,-122.09C81,-145.13 81,-182 81,-182 81,-182 606.04,-182 606.04,-182"/>
<polygon fill="black" stroke="black" points="606.04,-185.5 616.04,-182 606.04,-178.5 606.04,-185.5"/>
</g>
</g>
</svg>
