<?xml version="1.0" encoding="UTF-8" standalone="no"?>
<!DOCTYPE svg PUBLIC "-//W3C//DTD SVG 1.1//EN"
 "http://www.w3.org/Graphics/SVG/1.1/DTD/svg11.dtd">
<!-- Generated by graphviz version 2.47.0 (20210316.0004)
 -->
<!-- Title: dependencies Pages: 1 -->
<svg width="504pt" height="211pt"
 viewBox="0.00 0.00 504.00 211.00" xmlns="http://www.w3.org/2000/svg" xmlns:xlink="http://www.w3.org/1999/xlink">
<g id="graph0" class="graph" transform="scale(1 1) rotate(0) translate(4 207)">
<title>dependencies</title>
<polygon fill="white" stroke="transparent" points="-4,4 -4,-207 500,-207 500,4 -4,4"/>
<text text-anchor="start" x="227.01" y="-42.4" font-family="Times-12" font-weight="bold" font-size="14.00">Legend</text>
<polygon fill="#ffffb3" stroke="transparent" points="14,-10 14,-30 34,-30 34,-10 14,-10"/>
<text text-anchor="start" x="37.63" y="-15.4" font-family="Times-12" font-size="14.00"> &#160;Declarations</text>
<polygon fill="#8dd3c7" stroke="transparent" points="127,-10 127,-30 147,-30 147,-10 127,-10"/>
<text text-anchor="start" x="150.73" y="-15.4" font-family="Times-12" font-size="14.00"> &#160;Module</text>
<polygon fill="#80b1d3" stroke="transparent" points="213,-10 213,-30 233,-30 233,-10 213,-10"/>
<text text-anchor="start" x="236.78" y="-15.4" font-family="Times-12" font-size="14.00"> &#160;Bootstrap</text>
<polygon fill="#fdb462" stroke="transparent" points="310,-10 310,-30 330,-30 330,-10 310,-10"/>
<text text-anchor="start" x="333.67" y="-15.4" font-family="Times-12" font-size="14.00"> &#160;Providers</text>
<polygon fill="#fb8072" stroke="transparent" points="406,-10 406,-30 426,-30 426,-10 406,-10"/>
<text text-anchor="start" x="429.73" y="-15.4" font-family="Times-12" font-size="14.00"> &#160;Exports</text>
<g id="clust1" class="cluster">
<title>cluster_StripeModule</title>
<polygon fill="none" stroke="black" stroke-dasharray="1,5" points="59,-70 59,-195 437,-195 437,-70 59,-70"/>
</g>
<g id="clust6" class="cluster">
<title>cluster_StripeModule_providers</title>
<polygon fill="none" stroke="black" points="287,-78 287,-130 429,-130 429,-78 287,-78"/>
</g>
<g id="clust3" class="cluster">
<title>cluster_StripeModule_imports</title>
<polygon fill="none" stroke="black" points="67,-78 67,-130 279,-130 279,-78 67,-78"/>
</g>
<!-- MailModule -->
<g id="node1" class="node">
<title>MailModule</title>
<polygon fill="#8dd3c7" stroke="black" points="270.99,-122 267.99,-126 246.99,-126 243.99,-122 185.01,-122 185.01,-86 270.99,-86 270.99,-122"/>
<text text-anchor="middle" x="228" y="-99.8" font-family="Times,serif" font-size="14.00">MailModule</text>
</g>
<!-- StripeModule -->
<g id="node3" class="node">
<title>StripeModule</title>
<polygon fill="#8dd3c7" stroke="black" points="274.49,-187 271.49,-191 250.49,-191 247.49,-187 181.51,-187 181.51,-151 274.49,-151 274.49,-187"/>
<text text-anchor="middle" x="228" y="-164.8" font-family="Times,serif" font-size="14.00">StripeModule</text>
</g>
<!-- MailModule&#45;&gt;StripeModule -->
<g id="edge1" class="edge">
<title>MailModule&#45;&gt;StripeModule</title>
<path fill="none" stroke="black" d="M228,-122.11C228,-122.11 228,-140.99 228,-140.99"/>
<polygon fill="black" stroke="black" points="224.5,-140.99 228,-150.99 231.5,-140.99 224.5,-140.99"/>
</g>
<!-- UsersModule -->
<g id="node2" class="node">
<title>UsersModule</title>
<polygon fill="#8dd3c7" stroke="black" points="166.92,-122 163.92,-126 142.92,-126 139.92,-122 75.08,-122 75.08,-86 166.92,-86 166.92,-122"/>
<text text-anchor="middle" x="121" y="-99.8" font-family="Times,serif" font-size="14.00">UsersModule</text>
</g>
<!-- UsersModule&#45;&gt;StripeModule -->
<g id="edge2" class="edge">
<title>UsersModule&#45;&gt;StripeModule</title>
<path fill="none" stroke="black" d="M121,-122.11C121,-141.34 121,-169 121,-169 121,-169 171.38,-169 171.38,-169"/>
<polygon fill="black" stroke="black" points="171.38,-172.5 181.38,-169 171.38,-165.5 171.38,-172.5"/>
</g>
<!-- StripeService -->
<g id="node4" class="node">
<title>StripeService</title>
<ellipse fill="#fdb462" stroke="black" cx="358" cy="-104" rx="63.12" ry="18"/>
<text text-anchor="middle" x="358" y="-99.8" font-family="Times,serif" font-size="14.00">StripeService</text>
</g>
<!-- StripeService&#45;&gt;StripeModule -->
<g id="edge3" class="edge">
<title>StripeService&#45;&gt;StripeModule</title>
<path fill="none" stroke="black" d="M358,-122.11C358,-141.34 358,-169 358,-169 358,-169 284.57,-169 284.57,-169"/>
<polygon fill="black" stroke="black" points="284.57,-165.5 274.57,-169 284.57,-172.5 284.57,-165.5"/>
</g>
</g>
</svg>
