<?xml version="1.0" encoding="UTF-8" standalone="no"?>
<!DOCTYPE svg PUBLIC "-//W3C//DTD SVG 1.1//EN"
 "http://www.w3.org/Graphics/SVG/1.1/DTD/svg11.dtd">
<!-- Generated by graphviz version 2.47.0 (20210316.0004)
 -->
<!-- Title: dependencies Pages: 1 -->
<svg width="504pt" height="284pt"
 viewBox="0.00 0.00 504.00 284.00" xmlns="http://www.w3.org/2000/svg" xmlns:xlink="http://www.w3.org/1999/xlink">
<g id="graph0" class="graph" transform="scale(1 1) rotate(0) translate(4 280)">
<title>dependencies</title>
<polygon fill="white" stroke="transparent" points="-4,4 -4,-280 500,-280 500,4 -4,4"/>
<text text-anchor="start" x="227.01" y="-42.4" font-family="Times-12" font-weight="bold" font-size="14.00">Legend</text>
<polygon fill="#ffffb3" stroke="transparent" points="14,-10 14,-30 34,-30 34,-10 14,-10"/>
<text text-anchor="start" x="37.63" y="-15.4" font-family="Times-12" font-size="14.00"> &#160;Declarations</text>
<polygon fill="#8dd3c7" stroke="transparent" points="127,-10 127,-30 147,-30 147,-10 127,-10"/>
<text text-anchor="start" x="150.73" y="-15.4" font-family="Times-12" font-size="14.00"> &#160;Module</text>
<polygon fill="#80b1d3" stroke="transparent" points="213,-10 213,-30 233,-30 233,-10 213,-10"/>
<text text-anchor="start" x="236.78" y="-15.4" font-family="Times-12" font-size="14.00"> &#160;Bootstrap</text>
<polygon fill="#fdb462" stroke="transparent" points="310,-10 310,-30 330,-30 330,-10 310,-10"/>
<text text-anchor="start" x="333.67" y="-15.4" font-family="Times-12" font-size="14.00"> &#160;Providers</text>
<polygon fill="#fb8072" stroke="transparent" points="406,-10 406,-30 426,-30 426,-10 406,-10"/>
<text text-anchor="start" x="429.73" y="-15.4" font-family="Times-12" font-size="14.00"> &#160;Exports</text>
<g id="clust1" class="cluster">
<title>cluster_MessagesModule</title>
<polygon fill="none" stroke="black" stroke-dasharray="1,5" points="40,-70 40,-268 456,-268 456,-70 40,-70"/>
</g>
<g id="clust6" class="cluster">
<title>cluster_MessagesModule_providers</title>
<polygon fill="none" stroke="black" points="276,-78 276,-130 448,-130 448,-78 276,-78"/>
</g>
<g id="clust4" class="cluster">
<title>cluster_MessagesModule_exports</title>
<polygon fill="none" stroke="black" points="151,-208 151,-260 283,-260 283,-208 151,-208"/>
</g>
<g id="clust3" class="cluster">
<title>cluster_MessagesModule_imports</title>
<polygon fill="none" stroke="black" points="48,-78 48,-130 268,-130 268,-78 48,-78"/>
</g>
<!-- ChatModule -->
<g id="node1" class="node">
<title>ChatModule</title>
<polygon fill="#8dd3c7" stroke="black" points="259.99,-122 256.99,-126 235.99,-126 232.99,-122 174.01,-122 174.01,-86 259.99,-86 259.99,-122"/>
<text text-anchor="middle" x="217" y="-99.8" font-family="Times,serif" font-size="14.00">ChatModule</text>
</g>
<!-- MessagesModule -->
<g id="node3" class="node">
<title>MessagesModule</title>
<polygon fill="#8dd3c7" stroke="black" points="273.97,-187 270.97,-191 249.97,-191 246.97,-187 160.03,-187 160.03,-151 273.97,-151 273.97,-187"/>
<text text-anchor="middle" x="217" y="-164.8" font-family="Times,serif" font-size="14.00">MessagesModule</text>
</g>
<!-- ChatModule&#45;&gt;MessagesModule -->
<g id="edge1" class="edge">
<title>ChatModule&#45;&gt;MessagesModule</title>
<path fill="none" stroke="black" d="M217,-122.11C217,-122.11 217,-140.99 217,-140.99"/>
<polygon fill="black" stroke="black" points="213.5,-140.99 217,-150.99 220.5,-140.99 213.5,-140.99"/>
</g>
<!-- RoomsModule -->
<g id="node2" class="node">
<title>RoomsModule</title>
<polygon fill="#8dd3c7" stroke="black" points="155.72,-122 152.72,-126 131.72,-126 128.72,-122 56.28,-122 56.28,-86 155.72,-86 155.72,-122"/>
<text text-anchor="middle" x="106" y="-99.8" font-family="Times,serif" font-size="14.00">RoomsModule</text>
</g>
<!-- RoomsModule&#45;&gt;MessagesModule -->
<g id="edge2" class="edge">
<title>RoomsModule&#45;&gt;MessagesModule</title>
<path fill="none" stroke="black" d="M155.82,-104C162.45,-104 167.01,-104 167.01,-104 167.01,-104 167.01,-140.89 167.01,-140.89"/>
<polygon fill="black" stroke="black" points="163.51,-140.89 167.01,-150.89 170.51,-140.89 163.51,-140.89"/>
</g>
<!-- MessagesService  -->
<g id="node4" class="node">
<title>MessagesService </title>
<polygon fill="#fb8072" stroke="black" points="274.9,-252 159.1,-252 159.1,-216 274.9,-216 274.9,-252"/>
<text text-anchor="middle" x="217" y="-229.8" font-family="Times,serif" font-size="14.00">MessagesService </text>
</g>
<!-- MessagesModule&#45;&gt;MessagesService  -->
<g id="edge3" class="edge">
<title>MessagesModule&#45;&gt;MessagesService </title>
<path fill="none" stroke="black" stroke-dasharray="5,2" d="M217,-187.11C217,-187.11 217,-205.99 217,-205.99"/>
<polygon fill="black" stroke="black" points="213.5,-205.99 217,-215.99 220.5,-205.99 213.5,-205.99"/>
</g>
<!-- MessagesService -->
<g id="node5" class="node">
<title>MessagesService</title>
<ellipse fill="#fdb462" stroke="black" cx="362" cy="-104" rx="77.56" ry="18"/>
<text text-anchor="middle" x="362" y="-99.8" font-family="Times,serif" font-size="14.00">MessagesService</text>
</g>
<!-- MessagesService&#45;&gt;MessagesModule -->
<g id="edge4" class="edge">
<title>MessagesService&#45;&gt;MessagesModule</title>
<path fill="none" stroke="black" d="M284.42,-104C274.09,-104 266.99,-104 266.99,-104 266.99,-104 266.99,-140.89 266.99,-140.89"/>
<polygon fill="black" stroke="black" points="263.49,-140.89 266.99,-150.89 270.49,-140.89 263.49,-140.89"/>
</g>
</g>
</svg>
