<?xml version="1.0" encoding="UTF-8" standalone="no"?>
<!DOCTYPE svg PUBLIC "-//W3C//DTD SVG 1.1//EN"
 "http://www.w3.org/Graphics/SVG/1.1/DTD/svg11.dtd">
<!-- Generated by graphviz version 2.47.0 (20210316.0004)
 -->
<!-- Title: dependencies Pages: 1 -->
<svg width="2480pt" height="523pt"
 viewBox="0.00 0.00 2480.00 523.00" xmlns="http://www.w3.org/2000/svg" xmlns:xlink="http://www.w3.org/1999/xlink">
<g id="graph0" class="graph" transform="scale(1 1) rotate(0) translate(4 519)">
<title>dependencies</title>
<polygon fill="white" stroke="transparent" points="-4,4 -4,-519 2476,-519 2476,4 -4,4"/>
<text text-anchor="start" x="1215.01" y="-42.4" font-family="Times-12" font-weight="bold" font-size="14.00">Legend</text>
<polygon fill="#ffffb3" stroke="transparent" points="1002,-10 1002,-30 1022,-30 1022,-10 1002,-10"/>
<text text-anchor="start" x="1025.63" y="-15.4" font-family="Times-12" font-size="14.00"> &#160;Declarations</text>
<polygon fill="#8dd3c7" stroke="transparent" points="1115,-10 1115,-30 1135,-30 1135,-10 1115,-10"/>
<text text-anchor="start" x="1138.73" y="-15.4" font-family="Times-12" font-size="14.00"> &#160;Module</text>
<polygon fill="#80b1d3" stroke="transparent" points="1201,-10 1201,-30 1221,-30 1221,-10 1201,-10"/>
<text text-anchor="start" x="1224.78" y="-15.4" font-family="Times-12" font-size="14.00"> &#160;Bootstrap</text>
<polygon fill="#fdb462" stroke="transparent" points="1298,-10 1298,-30 1318,-30 1318,-10 1298,-10"/>
<text text-anchor="start" x="1321.67" y="-15.4" font-family="Times-12" font-size="14.00"> &#160;Providers</text>
<polygon fill="#fb8072" stroke="transparent" points="1394,-10 1394,-30 1414,-30 1414,-10 1394,-10"/>
<text text-anchor="start" x="1417.73" y="-15.4" font-family="Times-12" font-size="14.00"> &#160;Exports</text>
<g id="clust1" class="cluster">
<title>cluster_AppModule</title>
<polygon fill="none" stroke="black" stroke-dasharray="1,5" points="426,-146 426,-499 1228,-499 1228,-146 426,-146"/>
</g>
<g id="clust3" class="cluster">
<title>cluster_AppModule_imports</title>
<polygon fill="none" stroke="black" points="704,-154 704,-423 1220,-423 1220,-154 704,-154"/>
</g>
<g id="clust6" class="cluster">
<title>cluster_AppModule_providers</title>
<polygon fill="none" stroke="black" points="566,-371 566,-423 696,-423 696,-371 566,-371"/>
</g>
<g id="clust7" class="cluster">
<title>cluster_AuthModule</title>
<polygon fill="none" stroke="black" stroke-dasharray="1,5" points="1804,-211 1804,-279 2298,-279 2298,-211 1804,-211"/>
</g>
<g id="clust12" class="cluster">
<title>cluster_AuthModule_providers</title>
<polygon fill="none" stroke="black" points="1812,-219 1812,-271 2290,-271 2290,-219 1812,-219"/>
</g>
<g id="clust13" class="cluster">
<title>cluster_ChatModule</title>
<polygon fill="none" stroke="black" stroke-dasharray="1,5" points="8,-287 8,-355 136,-355 136,-287 8,-287"/>
</g>
<g id="clust16" class="cluster">
<title>cluster_ChatModule_exports</title>
<polygon fill="none" stroke="black" points="16,-295 16,-347 128,-347 128,-295 16,-295"/>
</g>
<g id="clust19" class="cluster">
<title>cluster_MailModule</title>
<polygon fill="none" stroke="black" stroke-dasharray="1,5" points="1236,-211 1236,-279 1496,-279 1496,-211 1236,-211"/>
</g>
<g id="clust22" class="cluster">
<title>cluster_MailModule_exports</title>
<polygon fill="none" stroke="black" points="1384,-219 1384,-271 1488,-271 1488,-219 1384,-219"/>
</g>
<g id="clust24" class="cluster">
<title>cluster_MailModule_providers</title>
<polygon fill="none" stroke="black" points="1244,-219 1244,-271 1376,-271 1376,-219 1244,-219"/>
</g>
<g id="clust25" class="cluster">
<title>cluster_MessagesModule</title>
<polygon fill="none" stroke="black" stroke-dasharray="1,5" points="1236,-363 1236,-431 1564,-431 1564,-363 1236,-363"/>
</g>
<g id="clust28" class="cluster">
<title>cluster_MessagesModule_exports</title>
<polygon fill="none" stroke="black" points="1424,-371 1424,-423 1556,-423 1556,-371 1424,-371"/>
</g>
<g id="clust30" class="cluster">
<title>cluster_MessagesModule_providers</title>
<polygon fill="none" stroke="black" points="1244,-371 1244,-423 1416,-423 1416,-371 1244,-371"/>
</g>
<g id="clust31" class="cluster">
<title>cluster_NotificationsModule</title>
<polygon fill="none" stroke="black" stroke-dasharray="1,5" points="1572,-363 1572,-431 1942,-431 1942,-363 1572,-363"/>
</g>
<g id="clust34" class="cluster">
<title>cluster_NotificationsModule_exports</title>
<polygon fill="none" stroke="black" points="1784,-371 1784,-423 1934,-423 1934,-371 1784,-371"/>
</g>
<g id="clust36" class="cluster">
<title>cluster_NotificationsModule_providers</title>
<polygon fill="none" stroke="black" points="1580,-371 1580,-423 1776,-423 1776,-371 1580,-371"/>
</g>
<g id="clust37" class="cluster">
<title>cluster_RoomsModule</title>
<polygon fill="none" stroke="black" stroke-dasharray="1,5" points="1504,-211 1504,-279 1796,-279 1796,-211 1504,-211"/>
</g>
<g id="clust40" class="cluster">
<title>cluster_RoomsModule_exports</title>
<polygon fill="none" stroke="black" points="1670,-219 1670,-271 1788,-271 1788,-219 1670,-219"/>
</g>
<g id="clust42" class="cluster">
<title>cluster_RoomsModule_providers</title>
<polygon fill="none" stroke="black" points="1512,-219 1512,-271 1662,-271 1662,-219 1512,-219"/>
</g>
<g id="clust43" class="cluster">
<title>cluster_SeederModule</title>
<polygon fill="none" stroke="black" stroke-dasharray="1,5" points="679,-70 679,-138 843,-138 843,-70 679,-70"/>
</g>
<g id="clust48" class="cluster">
<title>cluster_SeederModule_providers</title>
<polygon fill="none" stroke="black" points="687,-78 687,-130 835,-130 835,-78 687,-78"/>
</g>
<g id="clust49" class="cluster">
<title>cluster_StripeModule</title>
<polygon fill="none" stroke="black" stroke-dasharray="1,5" points="2306,-211 2306,-279 2464,-279 2464,-211 2306,-211"/>
</g>
<g id="clust54" class="cluster">
<title>cluster_StripeModule_providers</title>
<polygon fill="none" stroke="black" points="2314,-219 2314,-271 2456,-271 2456,-219 2314,-219"/>
</g>
<g id="clust55" class="cluster">
<title>cluster_TasksModule</title>
<polygon fill="none" stroke="black" stroke-dasharray="1,5" points="1236,-439 1236,-507 1512,-507 1512,-439 1236,-439"/>
</g>
<g id="clust58" class="cluster">
<title>cluster_TasksModule_exports</title>
<polygon fill="none" stroke="black" points="1394,-447 1394,-499 1504,-499 1504,-447 1394,-447"/>
</g>
<g id="clust60" class="cluster">
<title>cluster_TasksModule_providers</title>
<polygon fill="none" stroke="black" points="1244,-447 1244,-499 1386,-499 1386,-447 1244,-447"/>
</g>
<g id="clust61" class="cluster">
<title>cluster_UsersModule</title>
<polygon fill="none" stroke="black" stroke-dasharray="1,5" points="144,-287 144,-355 418,-355 418,-287 144,-287"/>
</g>
<g id="clust64" class="cluster">
<title>cluster_UsersModule_exports</title>
<polygon fill="none" stroke="black" points="300,-295 300,-347 410,-347 410,-295 300,-295"/>
</g>
<g id="clust66" class="cluster">
<title>cluster_UsersModule_providers</title>
<polygon fill="none" stroke="black" points="152,-295 152,-347 292,-347 292,-295 152,-295"/>
</g>
<!-- AuthModule -->
<g id="node1" class="node">
<title>AuthModule</title>
<polygon fill="#8dd3c7" stroke="black" points="1211.55,-339 1208.55,-343 1187.55,-343 1184.55,-339 1124.45,-339 1124.45,-303 1211.55,-303 1211.55,-339"/>
<text text-anchor="middle" x="1168" y="-316.8" font-family="Times,serif" font-size="14.00">AuthModule</text>
</g>
<!-- AppModule -->
<g id="node11" class="node">
<title>AppModule</title>
<polygon fill="#8dd3c7" stroke="black" points="576.66,-491 573.66,-495 552.66,-495 549.66,-491 493.34,-491 493.34,-455 576.66,-455 576.66,-491"/>
<text text-anchor="middle" x="535" y="-468.8" font-family="Times,serif" font-size="14.00">AppModule</text>
</g>
<!-- AuthModule&#45;&gt;AppModule -->
<g id="edge1" class="edge">
<title>AuthModule&#45;&gt;AppModule</title>
<path fill="none" stroke="black" d="M1168,-339.27C1168,-381.64 1168,-483 1168,-483 1168,-483 587.02,-483 587.02,-483"/>
<polygon fill="black" stroke="black" points="587.02,-479.5 577.02,-483 587.02,-486.5 587.02,-479.5"/>
</g>
<!-- ChatModule -->
<g id="node2" class="node">
<title>ChatModule</title>
<polygon fill="#8dd3c7" stroke="black" points="927.99,-263 924.99,-267 903.99,-267 900.99,-263 842.01,-263 842.01,-227 927.99,-227 927.99,-263"/>
<text text-anchor="middle" x="885" y="-240.8" font-family="Times,serif" font-size="14.00">ChatModule</text>
</g>
<!-- MessagesModule -->
<g id="node4" class="node">
<title>MessagesModule</title>
<polygon fill="#8dd3c7" stroke="black" points="935.97,-339 932.97,-343 911.97,-343 908.97,-339 822.03,-339 822.03,-303 935.97,-303 935.97,-339"/>
<text text-anchor="middle" x="879" y="-316.8" font-family="Times,serif" font-size="14.00">MessagesModule</text>
</g>
<!-- ChatModule&#45;&gt;MessagesModule -->
<g id="edge20" class="edge">
<title>ChatModule&#45;&gt;MessagesModule</title>
<path fill="none" stroke="black" d="M899.33,-263.01C899.33,-263.01 899.33,-292.85 899.33,-292.85"/>
<polygon fill="black" stroke="black" points="895.83,-292.85 899.33,-302.85 902.83,-292.85 895.83,-292.85"/>
</g>
<!-- NotificationsModule -->
<g id="node5" class="node">
<title>NotificationsModule</title>
<polygon fill="#8dd3c7" stroke="black" points="1086.14,-339 1083.14,-343 1062.14,-343 1059.14,-339 953.86,-339 953.86,-303 1086.14,-303 1086.14,-339"/>
<text text-anchor="middle" x="1020" y="-316.8" font-family="Times,serif" font-size="14.00">NotificationsModule</text>
</g>
<!-- ChatModule&#45;&gt;NotificationsModule -->
<g id="edge24" class="edge">
<title>ChatModule&#45;&gt;NotificationsModule</title>
<path fill="none" stroke="black" d="M928.16,-245C958.11,-245 992.64,-245 992.64,-245 992.64,-245 992.64,-292.99 992.64,-292.99"/>
<polygon fill="black" stroke="black" points="989.14,-292.99 992.64,-302.99 996.14,-292.99 989.14,-292.99"/>
</g>
<!-- ChatModule&#45;&gt;AppModule -->
<g id="edge2" class="edge">
<title>ChatModule&#45;&gt;AppModule</title>
<path fill="none" stroke="black" d="M841.69,-251C829.24,-251 818.97,-251 818.97,-251 818.97,-251 818.97,-463 818.97,-463 818.97,-463 586.9,-463 586.9,-463"/>
<polygon fill="black" stroke="black" points="586.9,-459.5 576.9,-463 586.9,-466.5 586.9,-459.5"/>
</g>
<!-- ChatGateway  -->
<g id="node16" class="node">
<title>ChatGateway </title>
<polygon fill="#fb8072" stroke="black" points="119.69,-339 24.31,-339 24.31,-303 119.69,-303 119.69,-339"/>
<text text-anchor="middle" x="72" y="-316.8" font-family="Times,serif" font-size="14.00">ChatGateway </text>
</g>
<!-- ChatModule&#45;&gt;ChatGateway  -->
<g id="edge17" class="edge">
<title>ChatModule&#45;&gt;ChatGateway </title>
<path fill="none" stroke="black" stroke-dasharray="5,2" d="M870.67,-263.21C870.67,-268.55 870.67,-273 870.67,-273 870.67,-273 72,-273 72,-273 72,-273 72,-292.85 72,-292.85"/>
<polygon fill="black" stroke="black" points="68.5,-292.85 72,-302.85 75.5,-292.85 68.5,-292.85"/>
</g>
<!-- MailModule -->
<g id="node3" class="node">
<title>MailModule</title>
<polygon fill="#8dd3c7" stroke="black" points="913.99,-198 910.99,-202 889.99,-202 886.99,-198 828.01,-198 828.01,-162 913.99,-162 913.99,-198"/>
<text text-anchor="middle" x="871" y="-175.8" font-family="Times,serif" font-size="14.00">MailModule</text>
</g>
<!-- StripeModule -->
<g id="node8" class="node">
<title>StripeModule</title>
<polygon fill="#8dd3c7" stroke="black" points="804.49,-339 801.49,-343 780.49,-343 777.49,-339 711.51,-339 711.51,-303 804.49,-303 804.49,-339"/>
<text text-anchor="middle" x="758" y="-316.8" font-family="Times,serif" font-size="14.00">StripeModule</text>
</g>
<!-- MailModule&#45;&gt;StripeModule -->
<g id="edge30" class="edge">
<title>MailModule&#45;&gt;StripeModule</title>
<path fill="none" stroke="black" d="M827.84,-174C819.28,-174 812.87,-174 812.87,-174 812.87,-174 812.87,-321 812.87,-321 812.87,-321 812.06,-321 812.06,-321"/>
<polygon fill="black" stroke="black" points="814.77,-317.5 804.77,-321 814.77,-324.5 814.77,-317.5"/>
</g>
<!-- UsersModule -->
<g id="node10" class="node">
<title>UsersModule</title>
<polygon fill="#8dd3c7" stroke="black" points="803.92,-263 800.92,-267 779.92,-267 776.92,-263 712.08,-263 712.08,-227 803.92,-227 803.92,-263"/>
<text text-anchor="middle" x="758" y="-240.8" font-family="Times,serif" font-size="14.00">UsersModule</text>
</g>
<!-- MailModule&#45;&gt;UsersModule -->
<g id="edge38" class="edge">
<title>MailModule&#45;&gt;UsersModule</title>
<path fill="none" stroke="black" d="M835,-198.02C835,-215.37 835,-239 835,-239 835,-239 814.13,-239 814.13,-239"/>
<polygon fill="black" stroke="black" points="814.13,-235.5 804.13,-239 814.13,-242.5 814.13,-235.5"/>
</g>
<!-- MailModule&#45;&gt;AppModule -->
<g id="edge3" class="edge">
<title>MailModule&#45;&gt;AppModule</title>
<path fill="none" stroke="black" d="M827.87,-186C820.9,-186 815.92,-186 815.92,-186 815.92,-186 815.92,-459 815.92,-459 815.92,-459 586.75,-459 586.75,-459"/>
<polygon fill="black" stroke="black" points="586.75,-455.5 576.75,-459 586.75,-462.5 586.75,-455.5"/>
</g>
<!-- MailService  -->
<g id="node17" class="node">
<title>MailService </title>
<polygon fill="#fb8072" stroke="black" points="1479.92,-263 1392.08,-263 1392.08,-227 1479.92,-227 1479.92,-263"/>
<text text-anchor="middle" x="1436" y="-240.8" font-family="Times,serif" font-size="14.00">MailService </text>
</g>
<!-- MailModule&#45;&gt;MailService  -->
<g id="edge18" class="edge">
<title>MailModule&#45;&gt;MailService </title>
<path fill="none" stroke="black" stroke-dasharray="5,2" d="M866,-198.06C866,-202.49 866,-206 866,-206 866,-206 1436,-206 1436,-206 1436,-206 1436,-216.87 1436,-216.87"/>
<polygon fill="black" stroke="black" points="1432.5,-216.87 1436,-226.87 1439.5,-216.87 1432.5,-216.87"/>
</g>
<!-- TasksModule -->
<g id="node9" class="node">
<title>TasksModule</title>
<polygon fill="#8dd3c7" stroke="black" points="1108.21,-415 1105.21,-419 1084.21,-419 1081.21,-415 1015.79,-415 1015.79,-379 1108.21,-379 1108.21,-415"/>
<text text-anchor="middle" x="1062" y="-392.8" font-family="Times,serif" font-size="14.00">TasksModule</text>
</g>
<!-- MessagesModule&#45;&gt;TasksModule -->
<g id="edge33" class="edge">
<title>MessagesModule&#45;&gt;TasksModule</title>
<path fill="none" stroke="black" d="M913.19,-339.01C913.19,-361.49 913.19,-397 913.19,-397 913.19,-397 1005.73,-397 1005.73,-397"/>
<polygon fill="black" stroke="black" points="1005.73,-400.5 1015.73,-397 1005.73,-393.5 1005.73,-400.5"/>
</g>
<!-- MessagesModule&#45;&gt;AppModule -->
<g id="edge4" class="edge">
<title>MessagesModule&#45;&gt;AppModule</title>
<path fill="none" stroke="black" d="M890.4,-339.2C890.4,-378.33 890.4,-467 890.4,-467 890.4,-467 586.81,-467 586.81,-467"/>
<polygon fill="black" stroke="black" points="586.81,-463.5 576.81,-467 586.81,-470.5 586.81,-463.5"/>
</g>
<!-- MessagesService  -->
<g id="node19" class="node">
<title>MessagesService </title>
<polygon fill="#fb8072" stroke="black" points="1547.9,-415 1432.1,-415 1432.1,-379 1547.9,-379 1547.9,-415"/>
<text text-anchor="middle" x="1490" y="-392.8" font-family="Times,serif" font-size="14.00">MessagesService </text>
</g>
<!-- MessagesModule&#45;&gt;MessagesService  -->
<g id="edge22" class="edge">
<title>MessagesModule&#45;&gt;MessagesService </title>
<path fill="none" stroke="black" stroke-dasharray="5,2" d="M844.81,-339.06C844.81,-350.44 844.81,-363 844.81,-363 844.81,-363 1456,-363 1456,-363 1456,-363 1456,-368.81 1456,-368.81"/>
<polygon fill="black" stroke="black" points="1452.5,-368.81 1456,-378.81 1459.5,-368.81 1452.5,-368.81"/>
</g>
<!-- NotificationsModule&#45;&gt;TasksModule -->
<g id="edge34" class="edge">
<title>NotificationsModule&#45;&gt;TasksModule</title>
<path fill="none" stroke="black" d="M1033.5,-339.01C1033.5,-339.01 1033.5,-368.85 1033.5,-368.85"/>
<polygon fill="black" stroke="black" points="1030,-368.85 1033.5,-378.85 1037,-368.85 1030,-368.85"/>
</g>
<!-- NotificationsModule&#45;&gt;AppModule -->
<g id="edge5" class="edge">
<title>NotificationsModule&#45;&gt;AppModule</title>
<path fill="none" stroke="black" d="M984.79,-339.27C984.79,-380.06 984.79,-475 984.79,-475 984.79,-475 586.91,-475 586.91,-475"/>
<polygon fill="black" stroke="black" points="586.91,-471.5 576.91,-475 586.91,-478.5 586.91,-471.5"/>
</g>
<!-- NotificationsService  -->
<g id="node21" class="node">
<title>NotificationsService </title>
<polygon fill="#fb8072" stroke="black" points="1926.07,-415 1791.93,-415 1791.93,-379 1926.07,-379 1926.07,-415"/>
<text text-anchor="middle" x="1859" y="-392.8" font-family="Times,serif" font-size="14.00">NotificationsService </text>
</g>
<!-- NotificationsModule&#45;&gt;NotificationsService  -->
<g id="edge25" class="edge">
<title>NotificationsModule&#45;&gt;NotificationsService </title>
<path fill="none" stroke="black" stroke-dasharray="5,2" d="M1051.11,-339.06C1051.11,-343.49 1051.11,-347 1051.11,-347 1051.11,-347 1805.71,-347 1805.71,-347 1805.71,-347 1805.71,-368.95 1805.71,-368.95"/>
<polygon fill="black" stroke="black" points="1802.21,-368.95 1805.71,-378.95 1809.21,-368.95 1802.21,-368.95"/>
</g>
<!-- RoomsModule -->
<g id="node6" class="node">
<title>RoomsModule</title>
<polygon fill="#8dd3c7" stroke="black" points="1031.72,-198 1028.72,-202 1007.72,-202 1004.72,-198 932.28,-198 932.28,-162 1031.72,-162 1031.72,-198"/>
<text text-anchor="middle" x="982" y="-175.8" font-family="Times,serif" font-size="14.00">RoomsModule</text>
</g>
<!-- RoomsModule&#45;&gt;ChatModule -->
<g id="edge16" class="edge">
<title>RoomsModule&#45;&gt;ChatModule</title>
<path fill="none" stroke="black" d="M932.18,-180C925.56,-180 921,-180 921,-180 921,-180 921,-216.89 921,-216.89"/>
<polygon fill="black" stroke="black" points="917.5,-216.89 921,-226.89 924.5,-216.89 917.5,-216.89"/>
</g>
<!-- RoomsModule&#45;&gt;MessagesModule -->
<g id="edge21" class="edge">
<title>RoomsModule&#45;&gt;MessagesModule</title>
<path fill="none" stroke="black" d="M944.83,-198.14C944.83,-236.23 944.83,-321 944.83,-321 944.83,-321 943.97,-321 943.97,-321"/>
<polygon fill="black" stroke="black" points="946.23,-317.5 936.23,-321 946.23,-324.5 946.23,-317.5"/>
</g>
<!-- RoomsModule&#45;&gt;TasksModule -->
<g id="edge35" class="edge">
<title>RoomsModule&#45;&gt;TasksModule</title>
<path fill="none" stroke="black" d="M1031.86,-189C1063,-189 1097.21,-189 1097.21,-189 1097.21,-189 1097.21,-368.91 1097.21,-368.91"/>
<polygon fill="black" stroke="black" points="1093.71,-368.91 1097.21,-378.91 1100.71,-368.91 1093.71,-368.91"/>
</g>
<!-- RoomsModule&#45;&gt;UsersModule -->
<g id="edge39" class="edge">
<title>RoomsModule&#45;&gt;UsersModule</title>
<path fill="none" stroke="black" d="M940.41,-198.13C940.41,-208.71 940.41,-220 940.41,-220 940.41,-220 758,-220 758,-220 758,-220 758,-220.68 758,-220.68"/>
<polygon fill="black" stroke="black" points="754.5,-216.83 758,-226.83 761.5,-216.83 754.5,-216.83"/>
</g>
<!-- RoomsModule&#45;&gt;AppModule -->
<g id="edge6" class="edge">
<title>RoomsModule&#45;&gt;AppModule</title>
<path fill="none" stroke="black" d="M949.26,-198.2C949.26,-261.91 949.26,-471 949.26,-471 949.26,-471 587,-471 587,-471"/>
<polygon fill="black" stroke="black" points="587,-467.5 577,-471 587,-474.5 587,-467.5"/>
</g>
<!-- RoomsService  -->
<g id="node23" class="node">
<title>RoomsService </title>
<polygon fill="#fb8072" stroke="black" points="1779.65,-263 1678.35,-263 1678.35,-227 1779.65,-227 1779.65,-263"/>
<text text-anchor="middle" x="1729" y="-240.8" font-family="Times,serif" font-size="14.00">RoomsService </text>
</g>
<!-- RoomsModule&#45;&gt;RoomsService  -->
<g id="edge27" class="edge">
<title>RoomsModule&#45;&gt;RoomsService </title>
<path fill="none" stroke="black" stroke-dasharray="5,2" d="M1031.88,-171C1199.05,-171 1729,-171 1729,-171 1729,-171 1729,-216.71 1729,-216.71"/>
<polygon fill="black" stroke="black" points="1725.5,-216.71 1729,-226.71 1732.5,-216.71 1725.5,-216.71"/>
</g>
<!-- SeederModule -->
<g id="node7" class="node">
<title>SeederModule</title>
<polygon fill="#8dd3c7" stroke="black" points="809.64,-198 806.64,-202 785.64,-202 782.64,-198 712.36,-198 712.36,-162 809.64,-162 809.64,-198"/>
<text text-anchor="middle" x="761" y="-175.8" font-family="Times,serif" font-size="14.00">SeederModule</text>
</g>
<!-- SeederModule&#45;&gt;AppModule -->
<g id="edge7" class="edge">
<title>SeederModule&#45;&gt;AppModule</title>
<path fill="none" stroke="black" d="M712.19,-180C639.03,-180 509.41,-180 509.41,-180 509.41,-180 509.41,-444.67 509.41,-444.67"/>
<polygon fill="black" stroke="black" points="505.91,-444.67 509.41,-454.67 512.91,-444.67 505.91,-444.67"/>
</g>
<!-- StripeModule&#45;&gt;AppModule -->
<g id="edge8" class="edge">
<title>StripeModule&#45;&gt;AppModule</title>
<path fill="none" stroke="black" d="M711.37,-321C647.85,-321 541.9,-321 541.9,-321 541.9,-321 541.9,-444.97 541.9,-444.97"/>
<polygon fill="black" stroke="black" points="538.4,-444.97 541.9,-454.97 545.4,-444.97 538.4,-444.97"/>
</g>
<!-- TasksModule&#45;&gt;AppModule -->
<g id="edge9" class="edge">
<title>TasksModule&#45;&gt;AppModule</title>
<path fill="none" stroke="black" d="M1038.95,-415.2C1038.95,-439.36 1038.95,-479 1038.95,-479 1038.95,-479 586.67,-479 586.67,-479"/>
<polygon fill="black" stroke="black" points="586.67,-475.5 576.67,-479 586.67,-482.5 586.67,-475.5"/>
</g>
<!-- TasksService  -->
<g id="node27" class="node">
<title>TasksService </title>
<polygon fill="#fb8072" stroke="black" points="1496.13,-491 1401.87,-491 1401.87,-455 1496.13,-455 1496.13,-491"/>
<text text-anchor="middle" x="1449" y="-468.8" font-family="Times,serif" font-size="14.00">TasksService </text>
</g>
<!-- TasksModule&#45;&gt;TasksService  -->
<g id="edge36" class="edge">
<title>TasksModule&#45;&gt;TasksService </title>
<path fill="none" stroke="black" stroke-dasharray="5,2" d="M1062,-415.11C1062,-424.9 1062,-435 1062,-435 1062,-435 1419.79,-435 1419.79,-435 1419.79,-435 1419.79,-444.89 1419.79,-444.89"/>
<polygon fill="black" stroke="black" points="1416.29,-444.89 1419.79,-454.89 1423.29,-444.89 1416.29,-444.89"/>
</g>
<!-- UsersModule&#45;&gt;AuthModule -->
<g id="edge12" class="edge">
<title>UsersModule&#45;&gt;AuthModule</title>
<path fill="none" stroke="black" d="M780.86,-263.15C780.86,-276.74 780.86,-293 780.86,-293 780.86,-293 1168,-293 1168,-293 1168,-293 1168,-293.98 1168,-293.98"/>
<polygon fill="black" stroke="black" points="1164.5,-292.79 1168,-302.79 1171.5,-292.79 1164.5,-292.79"/>
</g>
<!-- UsersModule&#45;&gt;StripeModule -->
<g id="edge31" class="edge">
<title>UsersModule&#45;&gt;StripeModule</title>
<path fill="none" stroke="black" d="M735.14,-263.01C735.14,-263.01 735.14,-292.85 735.14,-292.85"/>
<polygon fill="black" stroke="black" points="731.64,-292.85 735.14,-302.85 738.64,-292.85 731.64,-292.85"/>
</g>
<!-- UsersModule&#45;&gt;AppModule -->
<g id="edge10" class="edge">
<title>UsersModule&#45;&gt;AppModule</title>
<path fill="none" stroke="black" d="M712.1,-254C644.38,-254 525.66,-254 525.66,-254 525.66,-254 525.66,-444.7 525.66,-444.7"/>
<polygon fill="black" stroke="black" points="522.16,-444.7 525.66,-454.7 529.16,-444.7 522.16,-444.7"/>
</g>
<!-- UsersService  -->
<g id="node29" class="node">
<title>UsersService </title>
<polygon fill="#fb8072" stroke="black" points="401.85,-339 308.15,-339 308.15,-303 401.85,-303 401.85,-339"/>
<text text-anchor="middle" x="355" y="-316.8" font-family="Times,serif" font-size="14.00">UsersService </text>
</g>
<!-- UsersModule&#45;&gt;UsersService  -->
<g id="edge40" class="edge">
<title>UsersModule&#45;&gt;UsersService </title>
<path fill="none" stroke="black" stroke-dasharray="5,2" d="M712.16,-245C606.54,-245 355,-245 355,-245 355,-245 355,-292.99 355,-292.99"/>
<polygon fill="black" stroke="black" points="351.5,-292.99 355,-302.99 358.5,-292.99 351.5,-292.99"/>
</g>
<!-- AppService -->
<g id="node12" class="node">
<title>AppService</title>
<ellipse fill="#fdb462" stroke="black" cx="631" cy="-397" rx="56.74" ry="18"/>
<text text-anchor="middle" x="631" y="-392.8" font-family="Times,serif" font-size="14.00">AppService</text>
</g>
<!-- AppService&#45;&gt;AppModule -->
<g id="edge11" class="edge">
<title>AppService&#45;&gt;AppModule</title>
<path fill="none" stroke="black" d="M574.31,-397C564.9,-397 558.14,-397 558.14,-397 558.14,-397 558.14,-444.99 558.14,-444.99"/>
<polygon fill="black" stroke="black" points="554.64,-444.99 558.14,-454.99 561.64,-444.99 554.64,-444.99"/>
</g>
<!-- AuthService -->
<g id="node13" class="node">
<title>AuthService</title>
<ellipse fill="#fdb462" stroke="black" cx="1879" cy="-245" rx="59.11" ry="18"/>
<text text-anchor="middle" x="1879" y="-240.8" font-family="Times,serif" font-size="14.00">AuthService</text>
</g>
<!-- AuthService&#45;&gt;AuthModule -->
<g id="edge13" class="edge">
<title>AuthService&#45;&gt;AuthModule</title>
<path fill="none" stroke="black" d="M1872.99,-262.95C1872.99,-282.8 1872.99,-312 1872.99,-312 1872.99,-312 1221.57,-312 1221.57,-312"/>
<polygon fill="black" stroke="black" points="1221.57,-308.5 1211.57,-312 1221.57,-315.5 1221.57,-308.5"/>
</g>
<!-- JWTStrategy -->
<g id="node14" class="node">
<title>JWTStrategy</title>
<ellipse fill="#fdb462" stroke="black" cx="2220" cy="-245" rx="61.98" ry="18"/>
<text text-anchor="middle" x="2220" y="-240.8" font-family="Times,serif" font-size="14.00">JWTStrategy</text>
</g>
<!-- JWTStrategy&#45;&gt;AuthModule -->
<g id="edge14" class="edge">
<title>JWTStrategy&#45;&gt;AuthModule</title>
<path fill="none" stroke="black" d="M2220,-263.03C2220,-287.98 2220,-330 2220,-330 2220,-330 1221.86,-330 1221.86,-330"/>
<polygon fill="black" stroke="black" points="1221.86,-326.5 1211.86,-330 1221.86,-333.5 1221.86,-326.5"/>
</g>
<!-- RefreshJWTStrategy -->
<g id="node15" class="node">
<title>RefreshJWTStrategy</title>
<ellipse fill="#fdb462" stroke="black" cx="2048" cy="-245" rx="92.03" ry="18"/>
<text text-anchor="middle" x="2048" y="-240.8" font-family="Times,serif" font-size="14.00">RefreshJWTStrategy</text>
</g>
<!-- RefreshJWTStrategy&#45;&gt;AuthModule -->
<g id="edge15" class="edge">
<title>RefreshJWTStrategy&#45;&gt;AuthModule</title>
<path fill="none" stroke="black" d="M2048,-263.01C2048,-285.49 2048,-321 2048,-321 2048,-321 1221.64,-321 1221.64,-321"/>
<polygon fill="black" stroke="black" points="1221.64,-317.5 1211.64,-321 1221.64,-324.5 1221.64,-317.5"/>
</g>
<!-- MailService -->
<g id="node18" class="node">
<title>MailService</title>
<ellipse fill="#fdb462" stroke="black" cx="1310" cy="-245" rx="58.46" ry="18"/>
<text text-anchor="middle" x="1310" y="-240.8" font-family="Times,serif" font-size="14.00">MailService</text>
</g>
<!-- MailService&#45;&gt;MailModule -->
<g id="edge19" class="edge">
<title>MailService&#45;&gt;MailModule</title>
<path fill="none" stroke="black" d="M1310,-226.76C1310,-219.57 1310,-213 1310,-213 1310,-213 890,-213 890,-213 890,-213 890,-208.04 890,-208.04"/>
<polygon fill="black" stroke="black" points="893.5,-208.04 890,-198.04 886.5,-208.04 893.5,-208.04"/>
</g>
<!-- MessagesService -->
<g id="node20" class="node">
<title>MessagesService</title>
<ellipse fill="#fdb462" stroke="black" cx="1330" cy="-397" rx="77.56" ry="18"/>
<text text-anchor="middle" x="1330" y="-392.8" font-family="Times,serif" font-size="14.00">MessagesService</text>
</g>
<!-- MessagesService&#45;&gt;MessagesModule -->
<g id="edge23" class="edge">
<title>MessagesService&#45;&gt;MessagesModule</title>
<path fill="none" stroke="black" d="M1310.35,-379.51C1310.35,-374.81 1310.35,-371 1310.35,-371 1310.35,-371 867.6,-371 867.6,-371 867.6,-371 867.6,-349.05 867.6,-349.05"/>
<polygon fill="black" stroke="black" points="871.1,-349.05 867.6,-339.05 864.1,-349.05 871.1,-349.05"/>
</g>
<!-- NotificationsService -->
<g id="node22" class="node">
<title>NotificationsService</title>
<ellipse fill="#fdb462" stroke="black" cx="1678" cy="-397" rx="90.32" ry="18"/>
<text text-anchor="middle" x="1678" y="-392.8" font-family="Times,serif" font-size="14.00">NotificationsService</text>
</g>
<!-- NotificationsService&#45;&gt;NotificationsModule -->
<g id="edge26" class="edge">
<title>NotificationsService&#45;&gt;NotificationsModule</title>
<path fill="none" stroke="black" d="M1620.97,-382.78C1620.97,-370.6 1620.97,-355 1620.97,-355 1620.97,-355 1068.72,-355 1068.72,-355 1068.72,-355 1068.72,-349.19 1068.72,-349.19"/>
<polygon fill="black" stroke="black" points="1072.22,-349.19 1068.72,-339.19 1065.22,-349.19 1072.22,-349.19"/>
</g>
<!-- RoomsService -->
<g id="node24" class="node">
<title>RoomsService</title>
<ellipse fill="#fdb462" stroke="black" cx="1587" cy="-245" rx="67.21" ry="18"/>
<text text-anchor="middle" x="1587" y="-240.8" font-family="Times,serif" font-size="14.00">RoomsService</text>
</g>
<!-- RoomsService&#45;&gt;RoomsModule -->
<g id="edge28" class="edge">
<title>RoomsService&#45;&gt;RoomsModule</title>
<path fill="none" stroke="black" d="M1587,-226.89C1587,-207.66 1587,-180 1587,-180 1587,-180 1041.77,-180 1041.77,-180"/>
<polygon fill="black" stroke="black" points="1041.77,-176.5 1031.77,-180 1041.77,-183.5 1041.77,-176.5"/>
</g>
<!-- SeederService -->
<g id="node25" class="node">
<title>SeederService</title>
<ellipse fill="#fdb462" stroke="black" cx="761" cy="-104" rx="66.03" ry="18"/>
<text text-anchor="middle" x="761" y="-99.8" font-family="Times,serif" font-size="14.00">SeederService</text>
</g>
<!-- SeederService&#45;&gt;SeederModule -->
<g id="edge29" class="edge">
<title>SeederService&#45;&gt;SeederModule</title>
<path fill="none" stroke="black" d="M761,-122.01C761,-122.01 761,-151.85 761,-151.85"/>
<polygon fill="black" stroke="black" points="757.5,-151.85 761,-161.85 764.5,-151.85 757.5,-151.85"/>
</g>
<!-- StripeService -->
<g id="node26" class="node">
<title>StripeService</title>
<ellipse fill="#fdb462" stroke="black" cx="2385" cy="-245" rx="63.12" ry="18"/>
<text text-anchor="middle" x="2385" y="-240.8" font-family="Times,serif" font-size="14.00">StripeService</text>
</g>
<!-- StripeService&#45;&gt;StripeModule -->
<g id="edge32" class="edge">
<title>StripeService&#45;&gt;StripeModule</title>
<path fill="none" stroke="black" d="M2385,-263.11C2385,-272.9 2385,-283 2385,-283 2385,-283 758,-283 758,-283 758,-283 758,-292.89 758,-292.89"/>
<polygon fill="black" stroke="black" points="754.5,-292.89 758,-302.89 761.5,-292.89 754.5,-292.89"/>
</g>
<!-- TasksService -->
<g id="node28" class="node">
<title>TasksService</title>
<ellipse fill="#fdb462" stroke="black" cx="1315" cy="-473" rx="62.54" ry="18"/>
<text text-anchor="middle" x="1315" y="-468.8" font-family="Times,serif" font-size="14.00">TasksService</text>
</g>
<!-- TasksService&#45;&gt;TasksModule -->
<g id="edge37" class="edge">
<title>TasksService&#45;&gt;TasksModule</title>
<path fill="none" stroke="black" d="M1275.47,-487C1209.72,-487 1085.05,-487 1085.05,-487 1085.05,-487 1085.05,-425.21 1085.05,-425.21"/>
<polygon fill="black" stroke="black" points="1088.55,-425.21 1085.05,-415.21 1081.55,-425.21 1088.55,-425.21"/>
</g>
<!-- UsersService -->
<g id="node30" class="node">
<title>UsersService</title>
<ellipse fill="#fdb462" stroke="black" cx="222" cy="-321" rx="61.95" ry="18"/>
<text text-anchor="middle" x="222" y="-316.8" font-family="Times,serif" font-size="14.00">UsersService</text>
</g>
<!-- UsersService&#45;&gt;UsersModule -->
<g id="edge41" class="edge">
<title>UsersService&#45;&gt;UsersModule</title>
<path fill="none" stroke="black" d="M222,-302.97C222,-278.02 222,-236 222,-236 222,-236 701.84,-236 701.84,-236"/>
<polygon fill="black" stroke="black" points="701.84,-239.5 711.84,-236 701.84,-232.5 701.84,-239.5"/>
</g>
</g>
</svg>
